<svg fill="#000000" xmlns="http://www.w3.org/2000/svg"  viewBox="0 0 50 50" width="50px" height="50px"><path d="M 25.001953 1 C 24.900953 1 2.0019531 8.1367188 2.0019531 8.1367188 L 2.0019531 39.472656 C 2.0019531 39.472656 2.2432344 39.567656 2.6152344 39.722656 C 2.6152344 39.722656 24.882953 49.001953 25.001953 49.001953 C 25.120953 49.001953 47.388672 39.722656 47.388672 39.722656 C 47.760672 39.567656 48.001953 39.460938 48.001953 39.460938 L 48.001953 8.1328125 C 48.001953 8.1328125 25.102953 1 25.001953 1 z M 25.001953 3.0488281 L 43.660156 8.9003906 L 34.628906 11.732422 L 25.001953 14.751953 L 15.373047 11.732422 L 6.34375 8.9003906 L 25.001953 3.0488281 z M 4.0019531 10.261719 L 24.001953 16.533203 L 24.001953 46.498047 L 4.0019531 38.134766 L 4.0019531 10.261719 z M 46.001953 10.261719 L 46.001953 38.134766 L 26.001953 46.498047 L 26.001953 16.533203 L 46.001953 10.261719 z M 43.527344 15.800781 L 41.423828 16.525391 L 39.519531 30.996094 L 37.146484 18.001953 L 35.289062 18.642578 L 32.816406 33.609375 L 30.775391 20.199219 L 28.474609 20.992188 L 31.546875 38.800781 L 33.730469 37.90625 L 36.230469 23.328125 L 38.636719 35.896484 L 40.705078 35.048828 L 43.527344 15.800781 z M 12.544922 18.099609 C 12.3865 18.097141 12.230328 18.103391 12.080078 18.119141 C 11.482078 18.181141 10.972875 18.371547 10.546875 18.685547 C 10.121875 18.999547 9.7915938 19.426844 9.5585938 19.964844 C 9.3255937 20.501844 9.2109375 21.131375 9.2109375 21.859375 C 9.2109375 22.595375 9.3219219 23.286641 9.5449219 23.931641 C 9.7689219 24.576641 10.078609 25.185766 10.474609 25.759766 C 10.872609 26.334766 11.349344 26.882297 11.902344 27.404297 C 12.458344 27.927297 13.066516 28.433875 13.728516 28.921875 C 14.335516 29.373875 14.833656 29.780672 15.222656 30.138672 C 15.611656 30.496672 15.917625 30.837156 16.140625 31.160156 C 16.363625 31.483156 16.519516 31.805953 16.603516 32.126953 C 16.687516 32.447953 16.728516 32.794969 16.728516 33.167969 C 16.728516 33.911969 16.512078 34.435563 16.080078 34.726562 C 15.651078 35.022563 15.010063 35.016937 14.164062 34.710938 C 13.736063 34.556937 13.338703 34.349703 12.970703 34.095703 C 12.602703 33.841703 12.284625 33.535781 12.015625 33.175781 C 11.748625 32.816781 11.538766 32.4045 11.384766 31.9375 C 11.230766 31.4705 11.154297 30.950953 11.154297 30.376953 L 8.7910156 29.544922 C 8.7910156 30.502922 8.9449531 31.391938 9.2519531 32.210938 C 9.5589531 33.032937 9.96375 33.774547 10.46875 34.435547 C 10.97575 35.099547 11.550359 35.667578 12.193359 36.142578 C 12.838359 36.618578 13.496016 36.983469 14.166016 37.230469 C 14.922016 37.509469 15.611422 37.647531 16.232422 37.644531 C 16.855422 37.641531 17.387125 37.504516 17.828125 37.228516 C 18.271125 36.952516 18.611563 36.544859 18.851562 36.005859 C 19.092562 35.466859 19.212891 34.803531 19.212891 34.019531 C 19.212891 33.277531 19.116734 32.578922 18.927734 31.919922 C 18.736734 31.262922 18.446641 30.629438 18.056641 30.023438 C 17.666641 29.419438 17.17875 28.831766 16.59375 28.259766 C 16.01075 27.690766 15.323203 27.119781 14.533203 26.550781 C 13.530203 25.827781 12.788687 25.161828 12.304688 24.548828 C 11.821688 23.938828 11.580078 23.296094 11.580078 22.621094 C 11.580078 22.262094 11.629563 21.945922 11.726562 21.669922 C 11.823562 21.392922 11.976641 21.174625 12.181641 21.015625 C 12.385641 20.855625 12.643125 20.764281 12.953125 20.738281 C 13.264125 20.712281 13.6355 20.767297 14.0625 20.904297 C 14.5175 21.049297 14.909141 21.250766 15.244141 21.509766 C 15.579141 21.768766 15.858125 22.069063 16.078125 22.414062 C 16.298125 22.760063 16.461359 23.139781 16.568359 23.550781 C 16.676359 23.961781 16.730469 24.391844 16.730469 24.839844 L 19.203125 25.652344 C 19.203125 24.876344 19.086609 24.107703 18.849609 23.345703 C 18.612609 22.583703 18.272078 21.873844 17.830078 21.214844 C 17.389078 20.558844 16.850844 19.979469 16.214844 19.480469 C 15.580844 18.982469 14.869031 18.612188 14.082031 18.367188 C 13.531531 18.196938 13.020188 18.107016 12.544922 18.099609 z"/></svg>